<svg width="16" height="16" viewBox="0 0 16 16" fill="none" xmlns="http://www.w3.org/2000/svg">
<mask id="mask0_10502_10043" style="mask-type:alpha" maskUnits="userSpaceOnUse" x="0" y="0" width="16" height="16">
<rect width="16" height="16" fill="#D9D9D9"/>
</mask>
<g mask="url(#mask0_10502_10043)">
<path d="M1.33337 16.0002V13.3335H14.6667V16.0002H1.33337ZM4.00004 10.6668H4.93337L10.1334 5.4835L9.18337 4.5335L4.00004 9.7335V10.6668ZM2.66671 12.0002V9.16683L10.1334 1.71683C10.2556 1.59461 10.3973 1.50016 10.5584 1.4335C10.7195 1.36683 10.8889 1.3335 11.0667 1.3335C11.2445 1.3335 11.4167 1.36683 11.5834 1.4335C11.75 1.50016 11.9 1.60016 12.0334 1.7335L12.95 2.66683C13.0834 2.78905 13.1806 2.9335 13.2417 3.10016C13.3028 3.26683 13.3334 3.43905 13.3334 3.61683C13.3334 3.7835 13.3028 3.94739 13.2417 4.1085C13.1806 4.26961 13.0834 4.41683 12.95 4.55016L5.50004 12.0002H2.66671Z" fill="#0052E3"/>
</g>
</svg>
